<?xml version="1.0" standalone="no"?>
<!DOCTYPE svg PUBLIC "-//W3C//DTD SVG 20010904//EN"
 "http://www.w3.org/TR/2001/REC-SVG-20010904/DTD/svg10.dtd">
<svg version="1.0" xmlns="http://www.w3.org/2000/svg"
 width="512.000000pt" height="512.000000pt" viewBox="0 0 512.000000 512.000000"
 preserveAspectRatio="xMidYMid meet">

<g transform="translate(0.000000,512.000000) scale(0.100000,-0.100000)"
fill="#000000" stroke="none">
<path d="M1319 5111 c-43 -14 -74 -39 -96 -78 -20 -37 -21 -50 -18 -340 2
-291 3 -303 24 -332 70 -97 176 -106 256 -20 l37 41 3 306 c3 283 1 310 -16
343 -32 63 -123 101 -190 80z"/>
<path d="M3709 5111 c-45 -14 -79 -43 -98 -80 -17 -33 -19 -62 -16 -343 l3
-306 37 -41 c64 -69 142 -78 212 -25 19 15 41 41 48 58 8 21 14 125 19 324 6
291 6 294 -16 333 -12 22 -36 49 -53 59 -37 23 -100 32 -136 21z"/>
<path d="M2519 3361 c-45 -9 -38 -5 -412 -246 -216 -138 -315 -207 -328 -229
-22 -37 -27 -178 -7 -222 11 -23 17 -25 48 -21 30 4 282 145 568 319 l32 20 0
-1061 0 -1061 -305 0 -305 0 -16 -25 c-19 -29 -30 -127 -20 -180 4 -21 18 -48
31 -61 l24 -24 739 0 c690 0 741 1 761 18 36 29 51 129 31 204 -20 70 -12 68
-306 68 l-264 0 0 1228 c0 967 -3 1232 -12 1245 -22 30 -169 45 -259 28z"/>
</g>
</svg>
